<svg width="294" height="285" viewBox="0 0 294 285" fill="none" xmlns="http://www.w3.org/2000/svg">
<path fill-rule="evenodd" clip-rule="evenodd" d="M95.4838 23.6275C107.776 9.78479 125.982 0.9491 146.346 0.833179C166.708 0.717265 185.013 9.34425 197.462 23.0449C216.264 21.6657 235.589 27.878 250.069 41.7367C264.549 55.5953 271.186 74.2312 269.976 92.4468C284.268 104.341 293.386 121.961 293.498 141.671C293.61 161.386 284.69 179.111 270.53 191.168C271.945 209.365 265.52 228.072 251.201 242.092C236.883 256.112 217.633 262.544 198.82 261.382C186.528 275.225 168.322 284.06 147.959 284.176C127.597 284.292 109.292 275.665 96.8429 261.965C78.041 263.344 58.7155 257.132 44.2354 243.273C29.7554 229.414 23.1183 210.778 24.3288 192.562C10.037 180.668 0.918675 163.048 0.806471 143.338C0.694261 123.626 9.61226 105.903 23.769 93.8464C22.3527 75.6472 28.7773 56.9387 43.0974 42.9173C57.4175 28.8958 76.669 22.4637 95.4838 23.6275ZM201.192 115.837C204.778 110.919 203.568 104.119 198.488 100.65C193.409 97.1802 186.385 98.3546 182.799 103.273L134.611 169.366L110.101 145.907C105.681 141.677 98.5529 141.717 94.1809 145.998C89.8088 150.279 89.8481 157.179 94.2686 161.41L128.227 193.911C130.58 196.163 133.837 197.298 137.133 197.015C140.43 196.732 143.431 195.06 145.34 192.442L201.192 115.837Z" fill="#058949"/>
</svg>
